<svg width="24" height="24" xmlns="http://www.w3.org/2000/svg">
 <g>
  <title>background</title>
  <rect x="-1" y="-1" width="26" height="26" id="canvas_background" fill="#ffffff"/>
 </g>

 <g>
  <title>Layer 1</title>
  <path fill="#141414" d="m24.2204,-0.0369l-24.26614,0l0,24.26614l24.26614,0l0,-24.26614z" id="svg_1" stroke="null"/>
  <path fill="#f6f6f6" d="m18.02256,18.33995c-2.04417,-2.55521 -3.88392,-4.49717 -5.67257,-6.13251c-1.37981,1.53313 -2.65742,3.06625 -3.6284,4.59938c-0.91987,1.37981 -2.5041,0.61325 -2.70852,0.10221c-0.25552,-0.51104 -0.40883,-1.83975 1.07319,-2.75963c1.2265,-0.81767 2.5041,-1.78865 3.93502,-3.01515c-1.43092,-1.12429 -2.91294,-2.04416 -4.59938,-2.81073c-1.89085,-0.91987 -1.58423,-2.29969 -1.2265,-2.75962c0.35773,-0.51105 2.14638,-0.66436 3.5773,0.51104c1.2265,1.02208 2.55521,2.29969 3.88392,3.6284l4.70158,-4.24165c0.71546,-0.66436 1.1754,-0.20442 0.40883,0.71546c-1.2265,1.53312 -2.65741,3.06625 -4.08833,4.59937c2.04417,2.29969 3.98613,4.8038 5.16152,7.05238c0.61325,1.1754 -0.1022,1.32871 -0.81766,0.51105z" id="svg_2" stroke="null"/>
 </g>
</svg>